<svg width="28" height="17" viewBox="0 0 28 17" fill="none" xmlns="http://www.w3.org/2000/svg">
<path d="M25.1875 0.574791H1.9375C1.42364 0.574791 0.930832 0.746773 0.567481 1.0529C0.204129 1.35904 0 1.77424 0 2.20717V15.2662C0 15.6992 0.204129 16.1144 0.567481 16.4205C0.930832 16.7266 1.42364 16.8986 1.9375 16.8986H25.1875C25.7014 16.8986 26.1942 16.7266 26.5575 16.4205C26.9209 16.1144 27.125 15.6992 27.125 15.2662V2.20717C27.125 1.77424 26.9209 1.35904 26.5575 1.0529C26.1942 0.746773 25.7014 0.574791 25.1875 0.574791ZM23.0562 2.20717L13.5625 7.74095L4.06875 2.20717H23.0562ZM1.9375 15.2662V2.94991L13.0103 9.40598C13.1725 9.50076 13.3651 9.55155 13.5625 9.55155C13.7599 9.55155 13.9525 9.50076 14.1147 9.40598L25.1875 2.94991V15.2662H1.9375Z" fill="white"/>
</svg>
