<svg width="31" height="27" viewBox="0 0 31 27" fill="none" xmlns="http://www.w3.org/2000/svg">
<path d="M23.25 9.21788H25.8333C26.1759 9.21788 26.5044 9.33254 26.7467 9.53662C26.9889 9.74071 27.125 10.0175 27.125 10.3061V23.3652C27.125 23.6538 26.9889 23.9306 26.7467 24.1347C26.5044 24.3388 26.1759 24.4534 25.8333 24.4534H5.16667C4.8241 24.4534 4.49555 24.3388 4.25332 24.1347C4.01109 23.9306 3.875 23.6538 3.875 23.3652V10.3061C3.875 10.0175 4.01109 9.74071 4.25332 9.53662C4.49555 9.33254 4.8241 9.21788 5.16667 9.21788H7.75V8.12963C7.75 6.39789 8.56652 4.73708 10.0199 3.51255C11.4733 2.28803 13.4446 1.6001 15.5 1.6001C17.5554 1.6001 19.5267 2.28803 20.9801 3.51255C22.4335 4.73708 23.25 6.39789 23.25 8.12963V9.21788ZM6.45833 11.3944V22.2769H24.5417V11.3944H6.45833ZM14.2083 15.7474H16.7917V17.9239H14.2083V15.7474ZM9.04167 15.7474H11.625V17.9239H9.04167V15.7474ZM19.375 15.7474H21.9583V17.9239H19.375V15.7474ZM20.6667 9.21788V8.12963C20.6667 6.97513 20.1223 5.86793 19.1534 5.05158C18.1844 4.23523 16.8703 3.77661 15.5 3.77661C14.1297 3.77661 12.8156 4.23523 11.8466 5.05158C10.8777 5.86793 10.3333 6.97513 10.3333 8.12963V9.21788H20.6667Z" fill="white"/>
</svg>
